<?xml version="1.0" encoding="utf-8"?>
<!-- Generator: Adobe Illustrator 17.0.0, SVG Export Plug-In . SVG Version: 6.00 Build 0)  -->
<!DOCTYPE svg PUBLIC "-//W3C//DTD SVG 1.1//EN" "http://www.w3.org/Graphics/SVG/1.1/DTD/svg11.dtd">
<svg version="1.1" id="Layer_2" xmlns="http://www.w3.org/2000/svg" xmlns:xlink="http://www.w3.org/1999/xlink" x="0px" y="0px"
	 width="100px" height="100px" viewBox="0 0 100 100" enable-background="new 0 0 100 100" xml:space="preserve">
<path fill="#EB9278" d="M90.414,45.896c0,22.091-17.909,40-40,40s-40-17.909-40-40s17.909-40,40-40S90.414,23.805,90.414,45.896z
	 M73.844,56.645c2.189-5.3,3.341-9.591,3.226-15.582c-0.346-11.982-13.71-17.051-23.964-18.434
	c-7.604-1.037-16.475-0.806-22.927,3.687c-7.028,4.839-7.258,13.71-5.53,21.199c2.65,11.406,15.899,13.249,25.807,14.632
	c3.687,0.461,7.604,0.576,11.406,0.23c2.419-0.346,2.88-0.576,4.724,1.267c1.613,1.498,3.956,4.647,5.569,6.029
	c0.106-1.853-0.499-5.453-0.154-7.297C72.346,60.764,73.844,56.645,73.844,56.645z"/>
<g>
	<g>
		<path fill="#EB9278" d="M38.941,42.582c3.224,0,3.224-5,0-5C35.717,37.582,35.717,42.582,38.941,42.582L38.941,42.582z"/>
	</g>
</g>
<g>
	<g>
		<path fill="#EB9278" d="M49.903,44c3.224,0,3.224-5,0-5C46.679,39,46.679,44,49.903,44L49.903,44z"/>
	</g>
</g>
<g>
	<g>
		<path fill="#EB9278" d="M60.865,45.418c3.224,0,3.224-5,0-5C57.641,40.418,57.641,45.418,60.865,45.418L60.865,45.418z"/>
	</g>
</g>
</svg>
