<?xml version="1.0" encoding="utf-8"?>
<!-- Generator: Adobe Illustrator 17.0.0, SVG Export Plug-In . SVG Version: 6.00 Build 0)  -->
<!DOCTYPE svg PUBLIC "-//W3C//DTD SVG 1.1//EN" "http://www.w3.org/Graphics/SVG/1.1/DTD/svg11.dtd">
<svg version="1.1" xmlns="http://www.w3.org/2000/svg" xmlns:xlink="http://www.w3.org/1999/xlink" x="0px" y="0px" width="100px"
	 height="100px" viewBox="0 0 100 100" enable-background="new 0 0 100 100" xml:space="preserve">
<g id="Layer_1">
</g>
<g id="Layer_2">
	<g>
		<path fill="#EB9278" stroke="#EB9278" stroke-miterlimit="10" d="M32.857,40.101c3.499,2.944,7.137,5.249,11.245,7.286
			c3.681,1.826,6.987,4.185,11.06,1.876c2.086-1.182,4.239-2.385,6.211-3.751c4.054-2.809,7.588-5.829,9.466-10.336
			c-0.355,0.051-0.711,0.101-1.013,0.093c-2.821-0.076-5.642-0.119-8.464-0.091c-11.116,0.111-22.216,0.665-33.332,0.788
			C29.522,37.526,31.464,38.93,32.857,40.101z"/>
		<path fill="#EB9278" stroke="#EB9278" stroke-miterlimit="10" d="M37.857,49.235c-2.294-1.326-4.511-2.78-6.586-4.484
			c-1.351-1.109-3.034-2.343-4.614-3.7c0.043,2.215,0.112,4.429,0.243,6.638c0.161,3.039,0.03,6.137,0.407,9.161
			c0.115,0.924,0.066,3.076,0.25,4.981c1.761-1.938,3.488-3.909,5.16-5.92C34.324,53.977,36.785,51.59,37.857,49.235z"/>
		<path fill="#EB9278" stroke="#EB9278" stroke-miterlimit="10" d="M63.699,49.492c-0.273,0.168-0.546,0.341-0.819,0.514
			c1.615,2.377,3.36,4.682,5.158,6.912c1.917,2.376,4.038,5.481,6.746,7.062c0.018-0.24-0.005-0.583-0.003-1.114
			c0.007-1.746,0.022-3.519-0.168-5.258c-0.617-5.675-0.624-11.392-1.299-17.063c-0.006-0.052-0.016-0.103-0.022-0.155
			C70.922,44.105,67.546,47.116,63.699,49.492z"/>
		<path fill="#EB9278" stroke="#EB9278" stroke-miterlimit="10" d="M64.294,59.568c-1.826-2.325-3.639-4.68-5.313-7.123
			c-3.653,2.131-7.475,3.579-11.75,1.56c-1.799-0.85-3.589-1.706-5.354-2.6c-1.349,2.613-3.576,4.968-5.385,7.144
			c-1.92,2.31-3.894,4.578-5.92,6.799c6.133,0.147,12.282,0.134,18.4-0.345c6.321-0.494,12.611-0.536,18.948-0.524
			c0.126,0,0.253,0,0.379,0C66.839,62.891,65.525,61.135,64.294,59.568z"/>
		<path fill="#EB9278" stroke="#EB9278" stroke-miterlimit="10" d="M50.722,10.094c-22.091,0-40,17.909-40,40s17.909,40,40,40
			c22.091,0,40-17.909,40-40S72.814,10.094,50.722,10.094z M67.919,69.088c-8.76-0.035-17.423,0.679-26.167,0.882
			c-4.593,0.107-9.174,0.025-13.766-0.066c-1.782-0.035-2.9-0.78-3.914-2.154c-1.62-2.194-0.87-6.86-1.186-9.395
			c-0.442-3.545-0.406-7.105-0.595-10.667c-0.276-4.657-0.288-9.335-0.326-14c-0.01-1.257,1.056-2.303,2.304-2.304
			c8.411-0.01,16.805-0.251,25.21-0.537c7.748-0.264,16.633-1.411,24.288,0.032c4.863,0.917,4.12,8.961,4.446,12.734
			c0.567,6.55,1.622,13.622,1.147,20.206C78.888,70.382,73.092,69.109,67.919,69.088z"/>
	</g>
	<g id="Layer_3">
	</g>
</g>
</svg>
